<?xml version="1.0" standalone="no"?><!DOCTYPE svg PUBLIC "-//W3C//DTD SVG 1.1//EN" "http://www.w3.org/Graphics/SVG/1.1/DTD/svg11.dtd"><svg class="icon" width="200px" height="200.00px" viewBox="0 0 1024 1024" version="1.1" xmlns="http://www.w3.org/2000/svg"><path fill="#666666" d="M832 640v320c0 42.682-21.318 64-64 64s-64-21.318-64-64V640H576c-42.682 0-64-21.318-64-64s21.318-64 64-64h384c42.682 0 64 21.318 64 64s-21.318 64-64 64H832zM448 192v768c0 42.682-21.318 64-64 64s-64-21.318-64-64V192H128c0 42.682-21.318 64-64 64S0 234.682 0 192V64C0 21.318 21.318 0 64 0s64 21.318 64 64h512c0-42.682 21.318-64 64-64s64 21.318 64 64v128c0 42.682-21.318 64-64 64s-64-21.318-64-64H448z" /></svg>